<svg width="302" height="164" fill="none" xmlns="http://www.w3.org/2000/svg"><path fill-rule="evenodd" clip-rule="evenodd" d="M297 71.5C297 88.1863 282.535 104.801 255.633 117.539C229.114 130.096 192.126 138 151 138C109.874 138 72.8861 130.096 46.3667 117.539C19.4652 104.801 5 88.1863 5 71.5C5 54.8137 19.4652 38.199 46.3667 25.4609C72.8861 12.9036 109.874 5 151 5C192.126 5 229.114 12.9036 255.633 25.4609C282.535 38.199 297 54.8137 297 71.5ZM302 71.5C302 110.988 234.395 143 151 143C67.605 143 0 110.988 0 71.5C0 32.0116 67.605 0 151 0C234.395 0 302 32.0116 302 71.5ZM29.1425 116.514C32.0748 121.402 35.0873 129.353 34.6515 137.295C34.2205 145.148 30.4242 153.058 19.5789 158.093C16.0984 159.709 14.0639 160.759 13.2458 161.319C13.1367 161.394 13.0306 161.472 12.9374 161.553C12.8613 161.618 12.7222 161.745 12.618 161.923C12.5645 162.015 12.4774 162.191 12.4675 162.428C12.456 162.705 12.5548 162.985 12.7604 163.197C12.937 163.379 13.1345 163.452 13.2436 163.483C13.3606 163.516 13.4649 163.525 13.5357 163.528C13.7838 163.538 14.0666 163.483 14.2931 163.43C14.5514 163.371 14.863 163.283 15.2167 163.174C18.0175 162.31 24.348 159.787 31.55 156.405C38.759 153.02 46.907 148.744 53.3297 144.357C56.5386 142.165 59.3513 139.923 61.4044 137.726C63.4308 135.558 64.8492 133.296 64.9978 131.067L63.0022 130.933C62.9008 132.454 61.8817 134.286 59.9432 136.36C58.0315 138.406 55.352 140.554 52.2016 142.705C45.9055 147.006 37.866 151.23 30.7 154.595C29.0125 155.387 27.3772 156.13 25.828 156.814C33.3319 151.539 36.2615 144.457 36.6485 137.405C37.1127 128.947 33.9252 120.598 30.8575 115.486L29.1425 116.514ZM14.2354 163.075C14.2352 163.075 14.2378 163.072 14.2438 163.067C14.2387 163.072 14.2356 163.075 14.2354 163.075Z" fill="#202020"/></svg>